<svg viewBox="0 0 260 175" xmlns="http://www.w3.org/2000/svg">
<path d="M 260 84.362 C 260 130.954 201.797 168.725 130 168.725 C 109.262 168.725 89.658 165.573 72.264 159.968 C 55.974 166.378 25.754 176.129 27.455 174.894 C 35.779 168.855 43.663 158.071 39.227 144.754 C 15.027 129.432 0 108.035 0 84.362 C 0 37.771 58.203 0.001 130 0.001 C 201.797 0.001 260 37.771 260 84.362 Z" style="fill: #ffffff;"></path>
<path d="M 101.29 79.558 L 91.324 79.558 C 90.15 79.531 89.203 79.346 88.484 79.003 C 87.774 78.668 87.242 78.109 86.887 77.323 C 86.532 76.538 86.355 75.486 86.355 74.168 L 86.355 58.132 C 86.355 56.795 86.745 55.703 87.529 54.854 C 88.32 54.005 89.366 53.581 90.669 53.581 C 92.198 53.581 93.326 53.861 94.055 54.421 C 94.782 54.972 95.147 56.096 95.147 57.793 L 95.147 73.003 L 101.673 73.003 C 103.156 73.003 104.199 73.216 104.799 73.64 C 105.39 74.073 105.687 74.957 105.687 76.294 C 105.687 77.658 105.345 78.542 104.663 78.949 C 103.97 79.355 102.847 79.558 101.29 79.558 Z M 118.684 57.793 L 118.684 73.87 C 118.684 75.838 118.315 77.279 117.579 78.19 C 116.841 79.102 115.717 79.558 114.207 79.558 C 112.732 79.558 111.644 79.165 110.943 78.38 C 110.242 77.594 109.892 76.19 109.892 74.168 L 109.892 58.132 C 109.892 55.098 111.331 53.581 114.207 53.581 C 115.69 53.581 116.806 53.861 117.551 54.421 C 118.308 54.972 118.684 56.096 118.684 57.793 Z M 148.12 56.845 L 148.12 75.956 C 148.12 77.066 147.787 77.947 147.123 78.597 C 146.459 79.237 145.49 79.558 144.215 79.558 C 143.887 79.558 143.556 79.522 143.219 79.45 C 142.89 79.369 142.541 79.229 142.167 79.03 C 141.804 78.823 141.481 78.633 141.197 78.461 C 140.916 78.281 140.566 78.01 140.147 77.649 C 139.729 77.279 139.395 76.985 139.15 76.768 C 138.914 76.551 138.541 76.203 138.03 75.725 C 137.521 75.247 137.148 74.895 136.91 74.669 L 129.92 68.1 L 129.92 76.335 C 129.92 77.571 129.684 78.421 129.21 78.881 C 128.738 79.332 127.991 79.558 126.972 79.558 C 125.852 79.558 125.024 79.305 124.487 78.8 C 123.959 78.295 123.695 77.445 123.695 76.254 L 123.695 57.942 C 123.695 56.497 124.064 55.409 124.8 54.678 C 125.538 53.947 126.594 53.581 127.968 53.581 C 128.916 53.581 129.675 53.726 130.248 54.014 C 130.822 54.303 131.504 54.827 132.296 55.586 L 141.962 65.148 L 141.962 56.886 C 141.962 55.793 142.235 54.976 142.782 54.434 C 143.327 53.893 144.074 53.622 145.02 53.622 C 146.112 53.622 146.905 53.875 147.396 54.38 C 147.879 54.885 148.12 55.707 148.12 56.845 Z M 162.1 64.159 L 168.68 64.159 C 170.029 64.159 170.974 64.376 171.52 64.809 C 172.076 65.233 172.354 65.964 172.354 67.003 C 172.354 67.86 172.025 68.475 171.37 68.845 C 170.724 69.215 169.714 69.4 168.339 69.4 L 162.141 69.4 L 162.141 73.409 L 170.442 73.45 C 171.862 73.45 172.885 73.657 173.514 74.073 C 174.142 74.497 174.455 75.238 174.455 76.294 C 174.455 77.513 174.092 78.362 173.364 78.84 C 172.636 79.319 171.534 79.558 170.06 79.558 L 157.663 79.558 C 156.161 79.558 155.06 79.161 154.359 78.366 C 153.659 77.571 153.307 76.163 153.307 74.141 L 153.307 58.132 C 153.307 55.098 154.759 53.581 157.663 53.581 L 170.06 53.581 C 171.534 53.581 172.636 53.807 173.364 54.258 C 174.092 54.719 174.455 55.541 174.455 56.723 C 174.455 57.843 174.142 58.623 173.514 59.066 C 172.885 59.509 171.862 59.73 170.442 59.73 L 162.1 59.73 L 162.1 64.159 Z" style="white-space: pre; fill: #00ec00;"></path>
<path d="M 64.132 111.305 C 65.423 111.305 66.27 110.976 66.672 110.316 C 67.061 109.657 67.258 108.533 67.258 106.944 C 67.258 106.186 67.266 104.434 67.285 101.689 C 67.294 98.944 67.3 96.85 67.3 95.405 C 67.3 94.068 67.621 93.089 68.268 92.466 C 68.924 91.852 70.038 91.545 71.613 91.545 C 73.014 91.545 74.061 91.893 74.753 92.587 C 75.444 93.282 75.928 94.547 76.201 96.38 C 76.483 98.212 76.625 100.998 76.625 104.736 C 76.625 106.335 76.441 107.788 76.078 109.097 C 75.704 110.415 75.195 111.535 74.549 112.456 C 73.893 113.377 73.16 114.186 72.351 114.881 C 71.532 115.576 70.648 116.127 69.702 116.533 C 68.765 116.939 67.836 117.241 66.917 117.441 C 65.997 117.648 65.091 117.752 64.2 117.752 C 63.108 117.752 62.006 117.617 60.897 117.346 C 59.784 117.084 58.666 116.624 57.538 115.964 C 56.399 115.305 55.398 114.502 54.534 113.553 C 53.668 112.605 52.958 111.369 52.405 109.842 C 51.858 108.308 51.585 106.605 51.585 104.736 C 51.585 100.998 51.74 98.212 52.05 96.38 C 52.35 94.547 52.873 93.282 53.62 92.587 C 54.357 91.893 55.49 91.545 57.018 91.545 C 58.447 91.545 59.453 91.852 60.036 92.466 C 60.618 93.089 60.91 94.068 60.91 95.405 C 60.91 96.877 60.918 98.971 60.937 101.689 C 60.946 104.407 60.95 106.145 60.95 106.903 C 60.95 107.563 60.968 108.086 61.005 108.474 C 61.05 108.863 61.128 109.26 61.238 109.666 C 61.355 110.073 61.528 110.384 61.757 110.601 C 61.983 110.818 62.288 110.99 62.671 111.116 C 63.053 111.241 63.539 111.305 64.132 111.305 Z M 90.115 95.716 L 90.115 111.793 C 90.115 113.761 89.747 115.202 89.01 116.113 C 88.272 117.025 87.148 117.481 85.637 117.481 C 84.164 117.481 83.075 117.088 82.375 116.303 C 81.673 115.517 81.324 114.113 81.324 112.091 L 81.324 96.055 C 81.324 93.021 82.761 91.504 85.637 91.504 C 87.12 91.504 88.236 91.784 88.982 92.344 C 89.738 92.895 90.115 94.019 90.115 95.716 Z M 103.987 102.082 L 110.567 102.082 C 111.914 102.082 112.862 102.298 113.407 102.732 C 113.961 103.156 114.24 103.887 114.24 104.926 C 114.24 105.783 113.912 106.398 113.257 106.768 C 112.61 107.138 111.6 107.323 110.227 107.323 L 104.028 107.323 L 104.028 111.332 L 112.329 111.373 C 113.749 111.373 114.772 111.58 115.4 111.996 C 116.029 112.42 116.342 113.161 116.342 114.217 C 116.342 115.436 115.978 116.285 115.25 116.763 C 114.521 117.241 113.421 117.481 111.947 117.481 L 99.55 117.481 C 98.048 117.481 96.947 117.084 96.246 116.289 C 95.544 115.494 95.195 114.086 95.195 112.064 L 95.195 96.055 C 95.195 93.021 96.646 91.504 99.55 91.504 L 111.947 91.504 C 113.421 91.504 114.521 91.73 115.25 92.181 C 115.978 92.642 116.342 93.464 116.342 94.646 C 116.342 95.766 116.029 96.546 115.4 96.989 C 114.772 97.432 113.749 97.653 112.329 97.653 L 103.987 97.653 L 103.987 102.082 Z M 143.582 111.522 C 144.584 111.522 145.276 110.984 145.658 109.91 C 146.041 108.836 146.231 107.089 146.231 104.669 L 146.299 95.378 C 146.299 94.033 146.614 93.052 147.242 92.438 C 147.86 91.815 148.934 91.504 150.464 91.504 C 151.41 91.504 152.171 91.657 152.744 91.964 C 153.317 92.262 153.809 92.854 154.219 93.739 C 154.627 94.623 154.905 95.824 155.051 97.341 C 155.205 98.858 155.284 100.867 155.284 103.368 C 155.284 104.868 155.155 106.257 154.901 107.54 C 154.645 108.831 154.304 109.96 153.877 110.926 C 153.44 111.883 152.921 112.745 152.321 113.513 C 151.72 114.289 151.092 114.931 150.437 115.436 C 149.772 115.941 149.071 116.367 148.334 116.709 C 147.587 117.044 146.864 117.282 146.164 117.427 C 145.462 117.562 144.784 117.63 144.129 117.63 C 141.836 117.63 139.755 116.912 137.889 115.477 C 136.06 116.967 133.985 117.711 131.664 117.711 C 130.672 117.711 129.675 117.567 128.674 117.278 C 127.682 116.98 126.671 116.479 125.643 115.775 C 124.606 115.07 123.695 114.19 122.912 113.134 C 122.121 112.087 121.473 110.723 120.974 109.043 C 120.482 107.364 120.237 105.499 120.237 103.45 C 120.237 100.135 120.395 97.635 120.714 95.946 C 121.032 94.249 121.515 93.098 122.162 92.493 C 122.807 91.887 123.759 91.585 125.015 91.585 C 126.052 91.585 126.88 91.73 127.5 92.019 C 128.108 92.307 128.542 92.732 128.797 93.292 C 129.05 93.843 129.179 94.561 129.179 95.445 L 129.22 104.696 C 129.22 107.124 129.411 108.885 129.794 109.978 C 130.176 111.061 130.927 111.603 132.046 111.603 C 132.6 111.603 133.02 111.369 133.302 110.899 C 133.583 110.429 133.775 109.68 133.876 108.651 C 133.548 107.178 133.384 104.889 133.384 101.784 C 133.384 100.041 133.42 98.651 133.494 97.612 C 133.576 96.573 133.689 95.675 133.834 94.917 C 133.989 94.159 134.244 93.617 134.599 93.292 C 134.962 92.957 135.368 92.723 135.814 92.587 C 136.26 92.443 136.873 92.371 137.657 92.371 C 138.122 92.371 138.526 92.384 138.872 92.411 C 139.208 92.438 139.532 92.516 139.842 92.642 C 140.15 92.768 140.405 92.881 140.607 92.98 C 140.806 93.079 140.997 93.269 141.18 93.549 C 141.362 93.829 141.502 94.068 141.604 94.267 C 141.703 94.474 141.799 94.805 141.89 95.256 C 141.98 95.716 142.044 96.113 142.081 96.447 C 142.117 96.79 142.14 97.297 142.149 97.964 C 142.167 98.642 142.18 99.224 142.19 99.712 C 142.208 100.209 142.217 100.913 142.217 101.824 C 142.217 105.003 142.048 107.35 141.712 108.867 C 141.812 109.779 142.003 110.452 142.286 110.885 C 142.567 111.309 143 111.522 143.582 111.522 Z M 168.655 102.082 L 175.235 102.082 C 176.583 102.082 177.529 102.298 178.075 102.732 C 178.631 103.156 178.908 103.887 178.908 104.926 C 178.908 105.783 178.58 106.398 177.925 106.768 C 177.28 107.138 176.268 107.323 174.894 107.323 L 168.696 107.323 L 168.696 111.332 L 176.996 111.373 C 178.416 111.373 179.44 111.58 180.068 111.996 C 180.696 112.42 181.011 113.161 181.011 114.217 C 181.011 115.436 180.646 116.285 179.918 116.763 C 179.19 117.241 178.089 117.481 176.615 117.481 L 164.218 117.481 C 162.716 117.481 161.614 117.084 160.913 116.289 C 160.213 115.494 159.863 114.086 159.863 112.064 L 159.863 96.055 C 159.863 93.021 161.314 91.504 164.218 91.504 L 176.615 91.504 C 178.089 91.504 179.19 91.73 179.918 92.181 C 180.646 92.642 181.011 93.464 181.011 94.646 C 181.011 95.766 180.696 96.546 180.068 96.989 C 179.44 97.432 178.416 97.653 176.996 97.653 L 168.655 97.653 L 168.655 102.082 Z M 199.882 99.048 C 199.882 97.838 199.436 97.003 198.543 96.542 C 197.652 96.091 196.15 95.865 194.038 95.865 L 194.038 102.42 C 196.023 102.42 197.492 102.177 198.448 101.689 C 199.403 101.192 199.882 100.312 199.882 99.048 Z M 194.038 108.109 L 194.038 111.793 C 194.038 115.585 192.545 117.481 189.56 117.481 C 188.058 117.481 186.957 117.084 186.256 116.289 C 185.555 115.494 185.205 114.086 185.205 112.064 L 185.205 96.055 C 185.205 94.592 185.606 93.472 186.406 92.696 C 187.207 91.928 188.259 91.545 189.56 91.545 L 197.588 91.545 C 200.728 91.545 203.263 92.272 205.192 93.725 C 207.131 95.178 208.1 97.043 208.1 99.319 C 208.1 101.035 207.737 102.38 207.008 103.355 C 206.29 104.33 205.124 105.044 203.513 105.495 C 204.742 105.576 205.875 106.163 206.913 107.256 C 207.96 108.357 208.483 109.73 208.483 111.373 C 208.483 113.043 208.324 114.325 208.005 115.219 C 207.687 116.123 207.236 116.723 206.653 117.021 C 206.062 117.328 205.233 117.481 204.168 117.481 C 202.667 117.481 201.566 117.17 200.865 116.547 C 200.164 115.933 199.813 114.993 199.813 113.73 C 199.813 112.158 199.659 110.949 199.348 110.1 C 199.041 109.26 198.644 108.714 198.161 108.461 C 197.679 108.208 197.006 108.082 196.14 108.082 L 194.038 108.109 Z" style="white-space: pre; fill: #00ec00;"></path>
</svg>