<svg viewBox="0 0 512 512" xmlns="http://www.w3.org/2000/svg"><path fill="#ffffff" d="M502.82 60.707c-8.747-18.246-23.112-33.379-40.878-43.99C444.158 6.116 422.918.018 400.114 0c-30.364.018-58.026 10.846-78.361 28.784-10.163 8.974-18.508 19.756-24.32 31.923-5.825 12.148-9.096 25.69-9.096 39.875-.009 18.074 5.333 35.08 14.478 49.563 7.811 12.384 18.377 22.977 30.838 31.263l-18.766 46.876 13.551-1.673c46.817-5.854 91.631-23.376 112.916-32.575 20.222-7.218 37.676-19.558 50.241-35.586 12.647-16.138 20.332-36.194 20.318-57.867.013-14.186-3.275-27.727-9.093-39.876zm-22.976 86.262c-10.521 13.452-25.695 24.325-43.66 30.638l-.245.072-.244.109c-18.418 7.996-55.674 22.515-95.277 29.408l13.424-33.489-6.59-3.772c-13.297-7.599-24.184-17.947-31.679-29.824-7.504-11.914-11.62-25.284-11.633-39.531 0-11.19 2.546-21.819 7.25-31.661 7.042-14.736 19.051-27.626 34.464-36.826 15.419-9.199 34.19-14.663 54.458-14.654 27.065-.009 51.394 9.715 68.703 25.012 8.648 7.644 15.541 16.645 20.236 26.468 4.699 9.842 7.246 20.471 7.255 31.661-.008 17.044-5.923 32.911-16.462 46.389z"/><path fill="#ffffff" d="M356.032 89.483c-6.704 0-12.135 6.078-12.135 13.55 0 7.49 5.432 13.56 12.135 13.56 6.703 0 12.144-6.07 12.144-13.56 0-7.472-5.441-13.55-12.144-13.55zM402.858 89.483c-6.707 0-12.148 6.078-12.148 13.55 0 7.49 5.441 13.56 12.148 13.56 6.704 0 12.14-6.07 12.14-13.56 0-7.472-5.436-13.55-12.14-13.55zM449.672 89.483c-6.704 0-12.14 6.078-12.14 13.55 0 7.49 5.436 13.56 12.14 13.56 6.712 0 12.149-6.07 12.149-13.56-.001-7.472-5.437-13.55-12.149-13.55zM220.945 347.057c-12.682 4.216-26.202 6.585-40.282 6.585s-27.599-2.369-40.282-6.585C48.284 362.172.088 429.854.088 512h361.15c0-82.146-48.192-149.828-140.293-164.943zM180.663 324.36c54.588 0 98.836-44.252 98.836-98.836v-28.043c0-54.582-44.248-98.836-98.836-98.836s-98.836 44.253-98.836 98.836v28.043c0 54.584 44.249 98.836 98.836 98.836z" />
</svg>